<?xml version="1.0" ?><!DOCTYPE svg  PUBLIC '-//W3C//DTD SVG 1.1//EN'  'http://www.w3.org/Graphics/SVG/1.1/DTD/svg11.dtd'><svg enable-background="new 0 0 64 64" height="64px" id="Layer_1" version="1.1" viewBox="0 0 64 64" width="64px" xml:space="preserve" xmlns="http://www.w3.org/2000/svg" xmlns:xlink="http://www.w3.org/1999/xlink"><g><path d="M32.709,0.835c-9.453,0-17.881,4.146-23.591,10.719c-1.74,2.005-3.231,4.232-4.417,6.641l10.501,8.021   c1.217-3.693,3.567-6.862,6.64-9.104c3.043-2.217,6.795-3.527,10.866-3.527c4.398,0,8.37,1.559,11.491,4.109l9.079-9.066   C47.747,3.81,40.654,0.835,32.709,0.835z" fill="#FF7976"/><path d="M4.702,18.194l10.501,8.021c1.217-3.693,3.567-6.862,6.64-9.104c3.043-2.217,6.795-3.527,10.866-3.527   c4.398,0,8.37,1.559,11.491,4.109l9.079-9.066c-5.533-4.816-12.625-7.792-20.57-7.792" fill="#E3443A"/><path d="M14.268,32c0-0.287,0.021-0.57,0.034-0.854c0.082-1.716,0.387-3.37,0.901-4.931L4.702,18.194   c-1.931,3.917-3.051,8.303-3.177,12.952C1.517,31.431,1.5,31.714,1.5,32c0,0.287,0.017,0.571,0.024,0.856   c0.126,4.643,1.246,9.027,3.172,12.94l10.498-8.036c-0.509-1.553-0.812-3.2-0.892-4.905C14.289,32.571,14.268,32.288,14.268,32z" fill="#F4D72C"/><path d="M4.697,45.796l10.498-8.036c-0.509-1.553-0.812-3.2-0.892-4.905c-0.013-0.285-0.034-0.568-0.034-0.856   c0-0.287,0.021-0.57,0.034-0.854c0.082-1.716,0.387-3.37,0.901-4.931L4.702,18.194" fill="#F7B92B"/><path d="M1.5,32" fill="#F7B92B"/><path d="M43.074,47.691c-2.813,1.772-6.356,2.725-10.365,2.725c-2.346,0-4.581-0.446-6.641-1.239   c-1.517-0.584-2.933-1.365-4.226-2.305c-3.072-2.237-5.423-5.396-6.64-9.086l-10.501,8.02c1.184,2.405,2.672,4.629,4.409,6.631   c5.71,6.58,14.144,10.729,23.599,10.729c2.86,0,5.671-0.382,8.355-1.126c4.462-1.238,8.574-3.479,11.979-6.641L43.074,47.691z" fill="#59C96E"/><path d="M4.702,45.806c1.184,2.405,2.672,4.629,4.409,6.631c5.71,6.58,14.144,10.729,23.599,10.729   c2.86,0,5.671-0.382,8.355-1.126c4.462-1.238,8.574-3.479,11.979-6.641l-9.97-7.707c-2.813,1.772-6.356,2.725-10.365,2.725   c-2.346,0-4.581-0.446-6.641-1.239c-1.517-0.584-2.933-1.365-4.226-2.305" fill="#40A557"/><path d="M61.791,26H59.92H33v5.146v1.71V38h16.449c-0.837,4-3.115,7.636-6.375,9.691l9.97,7.707   c2.734-2.538,5.005-5.723,6.639-9.407c1.792-4.036,2.817-8.87,2.817-14.182C62.5,29.969,62.217,28,61.791,26z" fill="#0FAEF4"/><path d="M53.044,55.398c2.734-2.538,5.025-5.759,6.659-9.443c1.792-4.036,2.807-8.852,2.807-14.163   c0-1.841-0.293-3.792-0.719-5.792H60" fill="#4087ED"/><polyline fill="#4087ED" points="33,31 33,32.856 33,38 49,38  "/></g></svg>