<?xml version="1.0" standalone="no"?><!DOCTYPE svg PUBLIC "-//W3C//DTD SVG 1.1//EN" "http://www.w3.org/Graphics/SVG/1.1/DTD/svg11.dtd"><svg class="icon" height="512" viewBox="0 0 1024 1024" version="1.1" xmlns="http://www.w3.org/2000/svg"><path d="M774.34 842.442h19.318v12h-19.318z" fill="#C9C9C9" /><path d="M780.032 848.444a6.004 6.004 0 0 1-12.004 0 6 6 0 1 1 12.004 0zM799.658 848.444a6.004 6.004 0 0 1-12.004 0 6 6 0 1 1 12.004 0zM218.34 842.442h525.336v12H218.34z" fill="#C9C9C9" /><path d="M749.654 848.444a6.004 6.004 0 0 1-12.004 0 6 6 0 1 1 12.004 0zM224.342 848.444a6.004 6.004 0 0 1-12.004 0 6 6 0 1 1 12.004 0z" fill="#C9C9C9" /><path d="M447.674 873.226m-9.334 0a9.334 9.334 0 1 0 18.668 0 9.334 9.334 0 1 0-18.668 0Z" fill="#C9C9C9" /><path d="M319.282 866.06h101.056v12h-101.056zM479.34 866.06h107.336v12H479.34z" fill="#C9C9C9" /><path d="M324.898 872.06a6.004 6.004 0 0 1-12.004 0 6.004 6.004 0 0 1 12.004 0zM426.342 872.058a6.004 6.004 0 0 1-12.004 0 6.004 6.004 0 0 1 12.004 0zM484.906 872.06a6.004 6.004 0 0 1-12.004 0 6.004 6.004 0 0 1 12.004 0zM592.678 872.06a6.004 6.004 0 0 1-12.004 0 6.004 6.004 0 0 1 12.004 0z" fill="#C9C9C9" /><path d="M585.34 891.06h97.836v12H585.34zM721.508 891.06h44.834v12h-44.834z" fill="#C9C9C9" /><path d="M591.342 897.06a6.004 6.004 0 0 1-12.004 0 6.004 6.004 0 0 1 12.004 0zM773.008 897.06a6.004 6.004 0 0 1-12.004 0 6.004 6.004 0 0 1 12.004 0zM693.944 903.062a10.666 10.666 0 1 1 19.478-6.004 10.612 10.612 0 0 1-1.854 6.004h13.208c0.358-1.584 0.564-3.228 0.564-4.92 0-12.288-9.962-22.25-22.25-22.25s-22.25 9.962-22.25 22.25c0 1.694 0.206 3.336 0.564 4.92h12.54zM570.342 897.062a6 6 0 0 1-6 6h-10a6 6 0 1 1 0-12h10a6 6 0 0 1 6 6z" fill="#C9C9C9" /><path d="M191.264 188.7c-10.802 11.178-28.62 11.482-39.796 0.68l-18.322-17.706c-11.178-10.802-11.482-28.62-0.68-39.796 10.802-11.178 28.62-11.482 39.796-0.68l18.322 17.706c11.178 10.802 11.482 28.618 0.68 39.796z" fill="#E8E8E8" /><path d="M760.216 153.538c0 1.438-1.822 2.602-4.068 2.602h-43.862c-2.248 0-4.068-1.166-4.068-2.602v-6.796c0-1.438 1.822-2.602 4.068-2.602h43.862c2.248 0 4.068 1.166 4.068 2.602v6.796z" fill="#E8E8E8" /><path d="M730.82 176.14c-1.438 0-2.602-1.822-2.602-4.068V128.208c0-2.248 1.166-4.068 2.602-4.068h6.796c1.438 0 2.602 1.822 2.602 4.068v43.862c0 2.248-1.164 4.068-2.602 4.068h-6.796z" fill="#E8E8E8" /><path d="M441.008 108.06c0 0.882-1.12 1.598-2.5 1.598H411.56c-1.38 0-2.5-0.716-2.5-1.598v-4.176c0-0.882 1.12-1.598 2.5-1.598h26.95c1.38 0 2.5 0.716 2.5 1.598v4.176z" fill="#E8E8E8" /><path d="M422.946 121.948c-0.882 0-1.598-1.12-1.598-2.5V92.498c0-1.38 0.716-2.5 1.598-2.5h4.176c0.882 0 1.598 1.12 1.598 2.5v26.95c0 1.38-0.716 2.5-1.598 2.5h-4.176z" fill="#E8E8E8" /><path d="M587.312 75.624c-13.704 0-24.812 11.108-24.812 24.812s11.108 24.812 24.812 24.812 24.812-11.11 24.812-24.812c0-13.702-11.108-24.812-24.812-24.812z m-0.374 36.626a11.438 11.438 0 1 1 0-22.876 11.438 11.438 0 0 1 0 22.876z" fill="#E8E8E8" /><path d="M478.696 299.824m-15.978 0a15.978 15.978 0 1 0 31.956 0 15.978 15.978 0 1 0-31.956 0Z" fill="#E8E8E8" /><path d="M249.026 408.544m-9.666 0a9.666 9.666 0 1 0 19.332 0 9.666 9.666 0 1 0-19.332 0Z" fill="#E8E8E8" /><path d="M874.628 667.426l-46.064-42.104a351.196 351.196 0 0 0 7.558-72.598c0-193.3-156.7-350-350-350-48.606 0-94.876 9.944-136.944 27.852L308.52 188.434a11.194 11.194 0 1 0-16.112 15.544l35.366 36.658c7.97 10.914 7.258 26.282-2.414 36.384-10.856 11.34-28.852 11.732-40.192 0.876l-7-6.702a0.06 0.06 0 0 1-0.014 0.01l-40.858-39.52c-10.902-10.544-28.286-10.256-38.832 0.646s-10.256 28.286 0.646 38.832l46.224 44.71c8.74 10.504 8.646 26.094-0.82 36.478-10.346 11.35-27.934 12.164-39.284 1.818l-4.486-4.09-0.188 0.27-39.864-36.436c-17.122-15.65-43.688-14.456-59.338 2.666-15.65 17.122-14.456 43.688 2.666 59.338l55.514 50.742c-15.114 39.114-23.412 81.618-23.412 126.066 0 115.53 55.988 217.972 142.298 281.714h415.338a352.716 352.716 0 0 0 52.494-47.654l18.484 16.896c17.122 15.65 43.688 14.456 59.338-2.666 15.65-17.122 14.456-43.688-2.666-59.338l-26.45-24.176 0.066-0.118-37.624-34.388c-7.956-7.272-8.512-19.618-1.238-27.574s19.618-8.512 27.574-1.238l28.442 25.996 0.06-0.156 27.72 25.336c10.474 9.574 26.726 8.844 36.3-1.63 9.574-10.476 8.844-26.728-1.63-36.302z m-650.286-123.392c0 0.882-1.12 1.598-2.5 1.598h-9.788v9.788c0 1.38-0.716 2.5-1.598 2.5h-4.176c-0.884 0-1.598-1.12-1.598-2.5v-9.788h-9.788c-1.38 0-2.5-0.716-2.5-1.598v-4.176c0-0.882 1.12-1.598 2.5-1.598h9.788v-9.788c0-1.38 0.716-2.5 1.598-2.5h4.176c0.882 0 1.598 1.12 1.598 2.5v9.788h9.788c1.38 0 2.5 0.716 2.5 1.598v4.176z m24.462-112.61c-12.43 0-22.508-10.076-22.508-22.508s10.076-22.508 22.508-22.508c12.43 0 22.508 10.076 22.508 22.508s-10.078 22.508-22.508 22.508z m229.86-103.014c-16.13 0-29.208-13.076-29.208-29.208s13.076-29.208 29.208-29.208 29.208 13.076 29.208 29.208-13.078 29.208-29.208 29.208z m218.152 21.678c0 0.882-1.12 1.598-2.5 1.598h-9.788v9.788c0 1.38-0.716 2.5-1.598 2.5h-4.176c-0.882 0-1.598-1.12-1.598-2.5v-9.788h-9.788c-1.38 0-2.5-0.716-2.5-1.598v-4.176c0-0.882 1.12-1.598 2.5-1.598h9.788v-9.788c0-1.38 0.716-2.5 1.598-2.5h4.176c0.882 0 1.598 1.12 1.598 2.5v9.788h9.788c1.38 0 2.5 0.716 2.5 1.598v4.176z" fill="#E8E8E8" /><path d="M627.19 716.568c-1.64-0.786-3.504 0.188-4.17 2.162-0.004 0.014-0.522 1.526-2.076 4.308-0.994 1.78-0.604 4.194 0.868 5.394 0.552 0.448 1.176 0.664 1.794 0.664 1.034 0 2.048-0.6 2.67-1.714 1.982-3.55 2.662-5.598 2.732-5.82 0.636-1.988-0.176-4.208-1.818-4.994zM590.198 755.476a46.18 46.18 0 0 1-8.954 3.344c-1.736 0.452-2.84 2.52-2.466 4.618 0.326 1.822 1.658 3.066 3.14 3.066 0.224 0 0.452-0.028 0.682-0.088a51.852 51.852 0 0 0 10.05-3.756c1.642-0.82 2.424-3.09 1.746-5.074-0.674-1.984-2.554-2.932-4.198-2.11zM569.56 728.424h-0.022c-1.766 0-3.204 1.724-3.216 3.86a47.512 47.512 0 0 1-1.326 10.806c-0.492 2.062 0.49 4.216 2.196 4.812 0.298 0.104 0.598 0.154 0.894 0.154 1.396 0 2.68-1.106 3.088-2.808a56.8 56.8 0 0 0 1.578-12.914c0.016-2.144-1.414-3.894-3.192-3.91zM556.704 708.396c2.496 1.668 4.522 3.964 6.022 6.826 0.612 1.168 1.654 1.806 2.72 1.806 0.588 0 1.184-0.196 1.718-0.604 1.5-1.148 1.946-3.548 0.996-5.362-2.084-3.976-4.892-7.16-8.342-9.466-1.556-1.038-3.512-0.358-4.372 1.518-0.86 1.878-0.296 4.242 1.258 5.282zM565.572 760.344a51.06 51.06 0 0 1-2.204-0.17 3.822 3.822 0 0 0-0.924-1.398c-1.378-1.308-3.364-1.038-4.472 0.59a51.048 51.048 0 0 1-1.806-0.4c-1.744-0.416-3.434 0.95-3.78 3.056-0.22 1.344 0.162 2.664 0.92 3.55-0.592 0.684-1.202 1.358-1.826 2.016-1.338 1.41-1.478 3.864-0.312 5.482 0.636 0.88 1.528 1.332 2.426 1.332 0.75 0 1.502-0.314 2.112-0.956a64.712 64.712 0 0 0 4.892-5.794 59.3 59.3 0 0 0 4.674 0.452c1.778 0.104 3.28-1.558 3.362-3.702 0.082-2.142-1.288-3.96-3.062-4.058zM610.536 737.586a159.952 159.952 0 0 1-7.206 7.914c-1.352 1.392-1.514 3.844-0.362 5.478 0.636 0.902 1.54 1.364 2.45 1.364 0.738 0 1.48-0.304 2.084-0.928a167.52 167.52 0 0 0 7.526-8.268c1.272-1.498 1.296-3.958 0.054-5.494-1.238-1.534-3.274-1.564-4.546-0.066zM541.664 698.07a27.758 27.758 0 0 0-10.464 4.334c-1.546 1.056-2.092 3.426-1.218 5.294 0.59 1.264 1.682 1.974 2.802 1.974 0.536 0 1.08-0.162 1.58-0.504a21.926 21.926 0 0 1 8.28-3.42c1.756-0.328 2.958-2.312 2.688-4.432-0.27-2.12-1.916-3.57-3.668-3.246zM525.422 726.414c0-1.54 0.146-3.048 0.434-4.484 0.418-2.084-0.64-4.186-2.364-4.694-1.732-0.504-3.466 0.774-3.886 2.858a32.07 32.07 0 0 0-0.618 6.32c0 2.418 0.262 4.918 0.774 7.434 0.362 1.772 1.674 2.956 3.12 2.956 0.254 0 0.514-0.036 0.772-0.114 1.724-0.512 2.778-2.618 2.354-4.702a28.074 28.074 0 0 1-0.586-5.574zM538.348 778.05a70.934 70.934 0 0 1-8.806 4.466c-1.676 0.708-2.56 2.928-1.97 4.952 0.464 1.6 1.706 2.602 3.034 2.602 0.352 0 0.712-0.07 1.064-0.22a76.55 76.55 0 0 0 9.54-4.84c1.592-0.954 2.24-3.286 1.448-5.208-0.788-1.924-2.716-2.708-4.31-1.752zM541.392 752.822a39.4 39.4 0 0 1-7.604-6.202c-1.336-1.414-3.368-1.25-4.538 0.364-1.17 1.614-1.034 4.068 0.302 5.482a45.93 45.93 0 0 0 8.86 7.24c0.476 0.302 0.986 0.444 1.49 0.444 1.158 0 2.278-0.758 2.852-2.084 0.82-1.902 0.212-4.248-1.362-5.244zM513.912 787.314c-1.506 0.308-3.068 0.588-4.64 0.83-1.762 0.27-3.008 2.214-2.786 4.344 0.206 1.962 1.592 3.396 3.186 3.396 0.136 0 0.272-0.01 0.41-0.032a98.114 98.114 0 0 0 4.908-0.878c1.752-0.36 2.93-2.366 2.632-4.48s-1.96-3.544-3.71-3.18z" fill="#686868" /><path d="M653.252 683.31c-17.364 5.156-18.954 19.292-16.998 28.508-1.75 1.264-3.542 2.59-5.396 4.018-1.348 1.038-1.742 3.198-0.884 4.824 0.552 1.044 1.486 1.616 2.442 1.616 0.532 0 1.07-0.178 1.552-0.548 1.592-1.226 3.132-2.368 4.642-3.466 5.306 9.392 16.42 9.802 24.456 6.698 9.498-3.668 18.372-13.33 33.972-31.506-20.062-2.216-27.76-14.902-43.786-10.144z" fill="#686868" /><path d="M460.284 706.934l-145.25 0.478c-18.29 0.06-33.112-14.668-33.172-32.954l-0.594-180.31c-0.06-18.29 14.668-33.116 32.954-33.176l148.5-0.488c18.29-0.06 33.112 14.668 33.172 32.954l0.336 101.936a5.032 5.032 0 0 1-4.99 5.022 5.032 5.032 0 0 1-5.022-4.99l-0.336-101.908c-0.042-12.514-10.352-22.998-23.108-22.956l-148.5 0.488c-12.514 0.042-22.998 10.352-22.956 23.108l0.594 180.31c0.042 12.514 10.352 22.998 23.108 22.956l145.25-0.478c22.044-0.072 40.006-18.158 39.934-40.198a5.032 5.032 0 0 1 4.99-5.022 5.032 5.032 0 0 1 5.022 4.99c0.336 27.55-22.14 50.146-49.932 50.238z" fill="#8E8E8E" /><path d="M320.732 531.604a13.014 13.014 0 0 0 13.062 12.978 13.014 13.014 0 0 0 12.978-13.062 13.014 13.014 0 0 0-13.062-12.978 13.014 13.014 0 0 0-12.978 13.062zM444.946 536.202l-69.378 0.228c-2.744 0.008-5.014-2.246-5.022-4.99s2.246-5.014 4.99-5.022l69.378-0.228a5.032 5.032 0 0 1 5.022 4.99 5.02 5.02 0 0 1-4.99 5.022zM320.888 578.938a13.014 13.014 0 0 0 13.062 12.978 13.014 13.014 0 0 0 12.978-13.062 13.014 13.014 0 0 0-13.062-12.978 13.014 13.014 0 0 0-12.978 13.062zM445.102 583.536l-69.378 0.228a5.032 5.032 0 0 1-5.022-4.99 5.032 5.032 0 0 1 4.99-5.022l69.378-0.228a5.032 5.032 0 0 1 5.022 4.99 5.02 5.02 0 0 1-4.99 5.022zM321.044 626.512a13.014 13.014 0 0 0 13.062 12.978 13.014 13.014 0 0 0 12.978-13.062 13.014 13.014 0 0 0-13.062-12.978 13.014 13.014 0 0 0-12.978 13.062zM445.258 631.11l-69.378 0.228c-2.744 0.01-5.014-2.246-5.022-4.99s2.246-5.014 4.99-5.022l69.378-0.228c2.744-0.008 5.014 2.246 5.022 4.99s-2.222 5.014-4.99 5.022z" fill="#FFFFFF" /><path d="M557.35 632.504c-11.712-1.586-23.666-4.516-35.542-8.71a7.816 7.816 0 0 0-6.042 0.342l-30.884 15.028a8.174 8.174 0 0 0-1.044 0.608l-9.012 4.342 5.018-37.036a7.836 7.836 0 0 0-3.032-7.304c-39.738-30.104-59.906-74.31-53.956-118.226 9.74-71.894 85.916-121.118 169.822-109.75 83.896 11.366 144.24 79.096 134.502 150.978-9.736 71.874-85.922 121.096-169.83 109.728z" fill="#FFFFFF" /><path d="M637.456 490.296m-29.704 0a29.704 29.704 0 1 0 59.408 0 29.704 29.704 0 1 0-59.408 0Z" fill="#B7B7B7" /><path d="M514.14 490.296m-29.032 0a29.032 29.032 0 1 0 58.064 0 29.032 29.032 0 1 0-58.064 0Z" fill="#B7B7B7" /><path d="M543.324 590.752c0.302-17.538 14.59-31.668 32.2-31.668s31.898 14.13 32.2 31.668h10.604c-1.012-23.104-20.058-41.528-43.412-41.528s-42.4 18.422-43.412 41.528h11.82zM665.316 453.066c-1.924 0.638-12.03 0.854-21.498-5.172-7.808-4.968-8.168-8.928-9.836-18.824h-7.168c-0.234 13.044 4.252 19.426 11.616 24.676 7.722 5.506 18.674 6.52 26.888 6.52v-7.2zM520.254 430.566c-0.002 2.026-2.98 11.686-11.682 18.772-7.176 5.844-11.048 4.938-20.964 3.404l-2.258 6.804c12.306 4.332 19.776 2.086 27.078-3.248 7.658-5.594 12.072-15.668 14.66-23.462l-6.834-2.27z" fill="#B7B7B7" /><path d="M637.432 484.138m-11.466 0a11.466 11.466 0 1 0 22.932 0 11.466 11.466 0 1 0-22.932 0Z" fill="#FFFFFF" /><path d="M641.818 504.874m-6.166 0a6.166 6.166 0 1 0 12.332 0 6.166 6.166 0 1 0-12.332 0Z" fill="#FFFFFF" /><path d="M514.14 484.138m-11.466 0a11.466 11.466 0 1 0 22.932 0 11.466 11.466 0 1 0-22.932 0Z" fill="#FFFFFF" /><path d="M510.84 504.874m-6.166 0a6.166 6.166 0 1 0 12.332 0 6.166 6.166 0 1 0-12.332 0Z" fill="#FFFFFF" /></svg>